# AST/ASF file generated using VICON BodyLanguage
# -----------------------------------------------
:version 1.10
:name VICON
:units
  mass 1.0
  length 0.45
  angle deg
:documentation
   .ast/.asf automatically generated from VICON data using
   VICON BodyBuilder and BodyLanguage model FoxedUp or BRILLIANT.MOD
:root
   order TX TY TZ RX RY RZ
   axis XYZ
   position 0 0 0  
   orientation 0 -0 0 
:bonedata
  begin
     id 1 
     name lhipjoint
     direction 0.432694 -0.693742 0.575759 
     length 2.19277 
     axis 0 -0 0  XYZ
  end
  begin
     id 2 
     name lfemur
     direction 0.34202 -0.939693 0  
     length 6.69022  
     axis 0 -0 20  XYZ
    dof rx ry rz
    limits (-160.0 20.0)
           (-70.0 70.0)
           (-60.0 70.0)
  end
  begin
     id 3 
     name ltibia
     direction 0.34202 -0.939693 0   
     length 6.50337   
     axis 0 -0 20   XYZ
    dof rx
    limits (-10.0 170.0)
  end
  begin
     id 4 
     name lfoot
     direction 0.158999 -0.435969 0.885805   
     length 2.70564   
     axis -90 -1.13533e-015 20   XYZ
    dof rx rz
    limits (-45.0 90.0)
           (-70.0 20.0)
  end
  begin
     id 5 
     name ltoes
     direction -0.00592919 0.00964381 0.999936   
     length 1.29929   
     axis -90 -1.13533e-015 20   XYZ
    dof rx
    limits (-90.0 20.0)
  end
  begin
     id 6 
     name rhipjoint
     direction -0.414359 -0.700339 0.581234   
     length 2.17212  
     axis 0 -0 0  XYZ 
  end
  begin
     id 7 
     name rfemur
     direction -0.34202 -0.939693 0   
     length 7.17659   
     axis 0 -0 -20   XYZ
    dof rx ry rz
    limits (-160.0 20.0)
           (-70.0 70.0)
           (-70.0 60.0)
  end
  begin
     id 8 
     name rtibia
     direction -0.34202 -0.939693 0   
     length 6.36669   
     axis 0 -0 -20   XYZ
    dof rx
    limits (-10.0 170.0)
 end
 begin
     id 9 
     name rfoot
     direction -0.137064 -0.37658 0.916188   
     length 2.22351  
     axis -90 1.13533e-015 -20   XYZ
    dof rx rz
    limits (-45.0 90.0)
           (-20.0 70.0)
  end
  begin
     id 10 
     name rtoes
     direction -0.000784077 -0.00289101 0.999996   
     length 1.09522   
     axis -90 1.13533e-015 -20   XYZ
    dof rx
    limits (-90.0 20.0)
  end
  begin
     id 11 
     name lowerback
     direction -0.0176242 0.984912 -0.172157   
     length 1.65301   
     axis 0 -0 0   XYZ
    dof rx ry rz
    limits (-20.0 45.0)
           (-30.0 30.0)
           (-30.0 30.0)
  end
  begin
     id 12 
     name upperback
     direction -0.00218128 0.998776 -0.0494072   
     length 1.67776   
     axis 0 -0 0   XYZ
    dof rx ry rz
    limits (-20.0 45.0)
           (-30.0 30.0)
           (-30.0 30.0)
  end
  begin
     id 13 
     name thorax
     direction 0.00544186 0.999658 0.0255711   
     length 1.72293   
     axis 0 -0 0   XYZ
    dof rx ry rz
    limits (-20.0 45.0)
           (-30.0 30.0)
           (-30.0 30.0)
  end
  begin
     id 14 
     name lowerneck
     direction -0.105325 0.983841 0.144785   
     length 2.14226   
     axis 0 -0 0   XYZ
    dof rx ry rz
    limits (-20.0 45.0)
           (-30.0 30.0)
           (-30.0 30.0)
  end
  begin
     id 15 
     name upperneck
     direction 0.0547957 0.988053 -0.144041   
     length 2.17508   
     axis 0 -0 0   XYZ
    dof rx ry rz
    limits (-20.0 45.0)
           (-30.0 30.0)
           (-30.0 30.0)
  end
  begin
     id 16
     name head
     direction 0.0247488 0.997534 -0.0656813  
     length 2.20048  
     axis 0 -0 0   XYZ
    dof rx ry rz
    limits (-20.0 45.0)
           (-30.0 30.0)
           (-30.0 30.0)
  end
  begin
     id 17 
     name lclavicle
     direction 0.820559 0.567247 -0.0701026  
     length 4.09615  
     axis 0 -0 0   XYZ
    dof ry rz
    limits (-20.0 10.0)
           (0.0 20.0)
  end
  begin
     id 18 
     name lhumerus
     direction 0.999977 -0.0067566 -9.96392e-005   
     length 4.59333   
     axis -180 -30 -90   XYZ
    dof rx ry rz
    limits (-60.0 90.0)
           (-90.0 90.0)
           (-90.0 90.0)
  end
  begin
     id 19
     name lradius
     direction 1 -4.48982e-011 -2.53425e-027   
     length 2.81151   
     axis -180 -30 -90   XYZ
    dof rx
    limits (-10.0 170.0)
  end
  begin
     id 20
     name lwrist
     direction 1 -4.48939e-011 -7.39254e-028   
     length 1.40576   
     axis 2.56395e-016 90 90   XYZ
    dof ry
    limits (-180.0 0.0)
 end
  begin
     id 21 
     name lhand
     direction 1 -4.48939e-011 -1.47851e-027   
     length 0.895651   
     axis 9.43423e-016 90 90   XYZ
    dof rx rz
    limits (-90.0 90.0)
           (-45.0 45.0)
  end
  begin
     id 22 
     name lfingers
     direction 1 -4.48978e-011 -2.95702e-027   
     length 0.722097   
     axis 1.88685e-015 90 90   XYZ
    dof rx
    limits (0.0 90.0)
  end
  begin
     id 23
     name lthumb
     direction 0.707107 -6.34931e-011 0.707107   
     length 1.03679   
     axis -90 45 -9.86935e-015   XYZ
    dof rx rz
    limits (-45.0 45.0)
           (-45.0 45.0)
  end
  begin
     id 24 
     name rclavicle
     direction -0.831414 0.553102 -0.0531864   
     length 4.24872  
     axis 0 -0 0   XYZ 
    dof ry rz
    limits (-10.0 20.0)
           (-20.0 0.0)
  end
  begin
     id 25 
     name rhumerus
     direction -0.999916 -0.000939607 0.0129331  
     length 4.74834   
     axis -180 30 90   XYZ
    dof rx ry rz
    limits (-90.0 60.0)
           (-90.0 90.0)
           (-90.0 90.0)
  end
  begin
     id 26 
     name rradius
     direction -1 -4.48956e-011 -1.31752e-027   
     length 2.79907   
     axis -180 30 90   XYZ
    dof rx
    limits (-10.0 170.0)
  end
  begin
     id 27 
     name rwrist
     direction -1 -4.4897e-011 -7.39254e-028   
     length 1.39954   
     axis 2.56395e-016 -90 -90   XYZ
    dof ry
    limits (-180.0 0.0)
  end
  begin
     id 28
     name rhand
     direction -0.999997 -0.00250697 0.000800838   
     length 0.953304   
     axis 9.43423e-016 -90 -90   XYZ
    dof rx rz
    limits (-90.0 90.0)
           (-45.0 45.0)
  end
  begin
     id 29
     name rfingers
     direction -1 -4.48954e-011 -2.95702e-027   
     length 0.763342   
     axis 1.88685e-015 -90 -90   XYZ
    dof rx
    limits (0.0 90.0)
  end
  begin
     id 30
     name rthumb
     direction -0.709701 -0.00217037 0.7045   
     length 1.10115   
     axis -90 -45 9.86935e-015   XYZ
    dof rx rz
    limits (-45.0 45.0)
           (-45.0 45.0)
  end
:hierarchy
  begin
    root lhipjoint rhipjoint lowerback
    lhipjoint lfemur
    lfemur ltibia
    ltibia lfoot
    lfoot ltoes
    rhipjoint rfemur
    rfemur rtibia
    rtibia rfoot
    rfoot rtoes
    lowerback upperback
    upperback thorax
    thorax lowerneck lclavicle rclavicle
    lowerneck upperneck
    upperneck head
    lclavicle lhumerus
    lhumerus lradius
    lradius lwrist
    lwrist lhand lthumb
    lhand lfingers
    rclavicle rhumerus
    rhumerus rradius
    rradius rwrist
    rwrist rhand rthumb
    rhand rfingers
  end

#!OML:ASF G:\ViconDB\ViconDB\414\test\team2\shane.ASF
:FULLY-SPECIFIED
:DEGREES
99
root 2.30101 14.7635 -26.1969 59.8978 28.329 -30.0932
lowerback 31.9378 3.70582 -14.3303
upperback 10.8355 0.0887644 -5.3558
thorax -4.21377 -0.0648741 1.79545
lowerneck -30.3078 -6.86284 -15.2881
upperneck 6.57033 -4.7619 10.0317
head 7.3278 -1.72564 5.15426
rclavicle 6.36111e-014 6.36111e-014
rhumerus 82.1115 2.49589 -50.523
rradius 26.8581
rwrist 43.3848
rhand -41.4802 -18.6866
rfingers 7.12502
rthumb -14.3944 -48.1675
lclavicle 6.36111e-014 6.36111e-014
lhumerus 46.7187 -21.5173 30.4448
lradius 26.0487
lwrist 3.74632
lhand -46.7017 19.6951
lfingers 7.12502
lthumb -19.4205 48.7453
rfemur -17.8193 -27.0826 23.3534
rtibia 52.9442
rfoot -10.215 19.2066
rtoes -21.6903
lfemur -76.9911 12.7059 11.0911
ltibia 68.1896
lfoot -40.9786 -10.7409
ltoes -20.3488
100
root 2.40848 14.7767 -25.8192 61.3375 30.028 -31.1022
lowerback 32.7518 3.72266 -14.6309
upperback 10.3364 -0.163133 -5.03219
thorax -4.90165 -0.13584 2.28294
lowerneck -30.7673 -6.89061 -15.1398
upperneck 5.63553 -4.74722 10.1956
head 7.07548 -1.66596 5.18509
rclavicle -9.22361e-014 -1.59028e-014
rhumerus 82.7215 0.520349 -49.5187
rradius 27.2006
rwrist 45.0317
rhand -42.1729 -19.9518
rfingers 7.12502
rthumb -15.0617 -49.3839
lclavicle 6.36111e-014 6.36111e-014
lhumerus 46.7187 -21.5173 30.4448
lradius 26.0487
lwrist 3.74632
lhand -46.7017 19.6951
lfingers 7.12502
lthumb -19.4205 48.7453
rfemur -15.8964 -25.7285 21.845
rtibia 51.8017
rfoot -8.28197 18.3381
rtoes -19.5595
lfemur -76.7018 12.9741 12.9542
ltibia 66.9216
lfoot -40.2683 -8.65452
ltoes -23.232
101
root 2.52175 14.7958 -25.4219 62.7278 31.9579 -32.3668
lowerback 33.2984 3.58875 -14.5408
upperback 9.89336 -0.435803 -4.86399
thorax -5.56542 -0.210455 2.49472
lowerneck -31.3483 -6.77995 -14.7788
upperneck 4.86774 -4.59168 10.2115
head 6.85263 -1.5463 5.16251
rclavicle -9.54166e-014 -2.54444e-014
rhumerus 83.3527 -1.49257 -49.6064
rradius 27.2705
rwrist 47.3592
rhand -43.0552 -20.2631
rfingers 7.12502
rthumb -15.9115 -49.6295
lclavicle -9.54166e-014 -2.54444e-014
lhumerus 46.7187 -21.5173 30.4448
lradius 26.0487
lwrist 3.74632
lhand -46.7017 19.6951
lfingers 7.12502
lthumb -19.4205 48.7453
rfemur -14.277 -24.1534 21.0956
rtibia 50.4063
rfoot -6.97857 16.895
rtoes -18.6452
lfemur -76.1203 13.0617 15.9597
ltibia 65.6439
lfoot -39.082 -7.55851
ltoes -23.691
102
root 2.65498 14.8276 -24.9788 64.0523 33.7548 -33.7306
lowerback 33.4825 3.54139 -14.7103
upperback 9.57775 -0.593444 -4.61519
thorax -5.95168 -0.256123 2.89166
lowerneck -31.6009 -6.86126 -14.9146
upperneck 3.78071 -4.58778 10.6069
head 6.53754 -1.47826 5.31979
rclavicle -5.40694e-014 1.25632e-013
rhumerus 84.1547 -3.40249 -50.2042
rradius 27.3944
rwrist 49.8492
rhand -44.051 -20.6492
rfingers 7.12502
rthumb -16.8703 -49.9364
lclavicle -5.40694e-014 1.25632e-013
lhumerus 46.7187 -21.5173 30.4448
lradius 26.0487
lwrist 3.74632
lhand -46.7017 19.6951
lfingers 7.12502
lthumb -19.4205 48.7453
rfemur -12.7254 -22.1686 20.5538
rtibia 48.8696
rfoot -5.1735 15.5374
rtoes -16.9753
lfemur -75.3602 12.6863 19.7972
ltibia 64.8573
lfoot -37.8732 -6.94119
ltoes -22.1147
103
root 2.75003 14.7864 -24.6243 65.2863 35.5211 -34.9736
lowerback 33.7412 3.48937 -14.6431
upperback 9.25817 -0.740424 -4.81931
thorax -6.38864 -0.279975 2.6869
lowerneck -31.3862 -6.77648 -14.1055
upperneck 2.50991 -4.78087 10.8312
head 6.10566 -1.52304 5.23699
rclavicle 5.725e-014 -5.08889e-014
rhumerus 84.3679 -5.62714 -50.8892
rradius 27.9281
rwrist 51.2529
rhand -44.7514 -21.1682
rfingers 7.12502
rthumb -17.5444 -50.3965
lclavicle -5.40694e-014 1.25632e-013
lhumerus 46.7187 -21.5173 30.4448
lradius 26.0487
lwrist 3.74632
lhand -46.7017 19.6951
lfingers 7.12502
lthumb -19.4205 48.7453
rfemur -11.2145 -20.7206 19.7259
rtibia 47.4484
rfoot -3.5595 14.7609
rtoes -16.3507
lfemur -74.1487 12.3041 22.1916
ltibia 63.9923
lfoot -37.5611 -1.35571
ltoes -23.0663
104
root 2.80942 14.7071 -24.3323 66.2981 37.2241 -36.4996
lowerback 33.6477 3.35433 -14.4152
upperback 9.04962 -0.869473 -5.12005
thorax -6.58842 -0.313947 2.30324
lowerneck -30.8109 -6.63854 -13.2651
upperneck 0.868061 -4.88802 10.7224
head 5.48222 -1.57052 5.04662
rclavicle -9.85972e-014 -1.20861e-013
rhumerus 84.9158 -7.4979 -52.2865
rradius 28.2627
rwrist 52.4342
rhand -45.4347 -20.4418
rfingers 7.12502
rthumb -18.2019 -49.6102
lclavicle -9.85972e-014 -1.20861e-013
lhumerus 85.5643 13.8919 74.0584
lradius 13.117
lwrist -60.4471
lhand -70.8356 85.6077
lfingers 7.12502
lthumb -42.3919 -110.065
rfemur -9.93427 -18.8889 19.0748
rtibia 46.1335
rfoot -1.58873 14.1349
rtoes -14.3247
lfemur -74.1483 12.4255 24.6164
ltibia 64.0178
lfoot -35.3052 2.67752
ltoes -20.1568
